<svg xmlns="http://www.w3.org/2000/svg" viewBox="0 0 750 500"><g id="freepik--background-simple--inject-2"><path d="M286.18,112.49c97.48-48,197.73-110.75,311-85.07,35.11,8,67.06,27.87,88.66,56.81,57.75,77.39,53.06,195.92,21.68,283a158.37,158.37,0,0,1-15.79,32.55c-31.85,49.15-85.51,51.47-137.28,37.26-43.8-12-82.61-24.4-127.86-12.17-25.06,6.77-49.35,16.08-74.32,23.17-34,9.64-69.05,16.19-104.45,16.86-93.67,1.75-200.67-46-209-150.63a167.16,167.16,0,0,1-.33-20.39c1.88-41.76,15.68-83.58,53.93-105.26,38.46-21.8,84.09-30.41,125.23-45.87C241,134,263.74,123.54,286.18,112.49Z" style="fill:#92E3A9"></path><path d="M286.18,112.49c97.48-48,197.73-110.75,311-85.07,35.11,8,67.06,27.87,88.66,56.81,57.75,77.39,53.06,195.92,21.68,283a158.37,158.37,0,0,1-15.79,32.55c-31.85,49.15-85.51,51.47-137.28,37.26-43.8-12-82.61-24.4-127.86-12.17-25.06,6.77-49.35,16.08-74.32,23.17-34,9.64-69.05,16.19-104.45,16.86-93.67,1.75-200.67-46-209-150.63a167.16,167.16,0,0,1-.33-20.39c1.88-41.76,15.68-83.58,53.93-105.26,38.46-21.8,84.09-30.41,125.23-45.87C241,134,263.74,123.54,286.18,112.49Z" style="fill:#fff;opacity:0.7000000000000001"></path></g><g id="freepik--Floor--inject-2"><rect x="19.03" y="439.86" width="726.34" height="1" style="fill:#263238"></rect></g><g id="freepik--Plant--inject-2"><path d="M35.34,344c3.24,1.42,11.17,1.24,11.17,1.24s-1.7-5.19-1.85-5.5c-1.74-3.64-7.24-9.64-11.71-9a5.35,5.35,0,0,0-4.29,6.7C29.41,340.49,32.58,342.79,35.34,344Z" style="fill:#263238"></path><path d="M38.08,367c3.36.49,10.43-1.56,11-1.73a96.24,96.24,0,0,0,4.29,11.87c1,2.25,2,4.49,3.11,6.72-.65-.95-1.23-1.79-1.33-1.9-2.64-3-9.52-7.38-13.68-5.62a5.35,5.35,0,0,0-2.37,7.59c1.54,2.79,5.21,4.18,8.19,4.61s9.09-1.19,10.69-1.64l1.26,2.56c2.05,4.07,4.11,8.13,6,12.18.67,1.42,1.28,2.85,1.89,4.28-.57-.84-1.06-1.54-1.15-1.64-2.63-3.05-9.52-7.39-13.68-5.63a5.35,5.35,0,0,0-2.37,7.59c1.54,2.8,5.21,4.18,8.19,4.61s8.5-1,10.4-1.56c.59,1.48,1.17,3,1.67,4.42.32,1,.7,1.95,1,3l.84,3c.46,1.93,1,3.92,1.36,5.81.29,1.32.54,2.58.8,3.84-.65-1.42-2-4.19-2.12-4.41-2.15-3.41-8.3-8.74-12.67-7.63a5.33,5.33,0,0,0-3.49,7.14c1.09,3,4.51,4.92,7.39,5.8,3.17,1,10.19.08,11.07,0,.42,2.09.81,4.14,1.14,6.07.26,1.43.49,2.81.7,4.13H79c-.27-1.47-.56-3-.88-4.62-.41-2.13-.9-4.4-1.43-6.72a58.9,58.9,0,0,0,6.17-2.91c2.31,2.5,8.24,5.43,9,5.81-.8,2-1.61,3.9-2.39,5.7l-1.22,2.74h3c.24-.56.47-1.12.71-1.7.83-2,1.67-4.18,2.52-6.4.85.17,7.79,1.58,11,.85,2.94-.66,6.5-2.32,7.81-5.23a5.33,5.33,0,0,0-3-7.38c-4.28-1.44-10.81,3.42-13.2,6.67-.14.19-1.44,2.44-2.24,3.87.34-.91.68-1.8,1-2.74.68-1.86,1.31-3.74,2-5.76.3-1,.59-2,.89-3s.54-2.07.81-3.12c.58-2.45,1-4.95,1.47-7.48,1.63.59,7.46,2.62,10.47,2.4s6.77-1.31,8.51-4a5.34,5.34,0,0,0-1.79-7.75c-4-2.07-11.21,1.75-14.06,4.59-.18.18-2,2.45-3,3.72.24-1.53.49-3.05.68-4.6.55-4.48,1-9,1.42-13.56.13-1.39.28-2.77.43-4.16.58.22,7.45,2.78,10.83,2.54,3-.21,6.77-1.31,8.51-4a5.35,5.35,0,0,0-1.8-7.75c-4-2.07-11.2,1.75-14.06,4.59-.21.22-2.83,3.49-3.45,4.35.32-3.05.67-6.08,1.13-9.06a93.73,93.73,0,0,1,2.61-11.93c.27.11,7.42,2.81,10.89,2.57,3-.22,6.77-1.32,8.51-4a5.34,5.34,0,0,0-1.8-7.74c-4-2.07-11.2,1.74-14.06,4.58-.23.23-3,3.75-3.5,4.42.06-.22.11-.47.18-.69a68.9,68.9,0,0,1,4.72-11.28c1-2,2.12-3.87,3.23-5.66,1.28.64,7.17,3.5,10.31,3.62s6.87-.56,8.89-3a5.35,5.35,0,0,0-.93-7.9c-3.76-2.5-11.33.51-14.48,3-.17.13-1.76,1.72-2.9,2.89.51-.8,1-1.64,1.53-2.39,1.88-2.85,3.79-5.34,5.49-7.53,1-1.23,1.89-2.33,2.76-3.35,1.58,0,8-.23,10.76-1.54s5.84-3.66,6.5-6.78a5.34,5.34,0,0,0-4.46-6.58c-4.49-.48-9.83,5.67-11.47,9.35-.14.32-1.78,5.55-1.7,5.55h.1c-.85,1-1.75,2-2.71,3.17-1.76,2.16-3.72,4.61-5.68,7.42a96.9,96.9,0,0,0-5.89,9.38,70.07,70.07,0,0,0-5,11.32.83.83,0,0,1,0,.15c0-1.33,0-5-.07-5.31-.52-4-3.87-11.42-8.31-12.24a5.34,5.34,0,0,0-6.16,5c-.26,3.17,2,6.35,4.29,8.36,2.53,2.26,9.56,4.45,10.12,4.62a95.15,95.15,0,0,0-3,12.27c-.43,2.41-.79,4.86-1.12,7.31,0-1.14,0-2.16-.06-2.31-.52-4-3.87-11.41-8.31-12.23a5.34,5.34,0,0,0-6.16,5c-.26,3.18,2,6.36,4.29,8.36s8.24,4,9.82,4.53l-.36,2.83c-.54,4.53-1.06,9-1.71,13.48-.22,1.55-.5,3.08-.78,4.61,0-1,0-1.87,0-2-.52-4-3.87-11.42-8.31-12.24a5.34,5.34,0,0,0-6.16,5c-.26,3.18,2,6.36,4.29,8.36s7.65,3.83,9.53,4.44c-.33,1.56-.66,3.11-1.05,4.61-.29,1-.49,2-.84,3l-1,3c-.68,1.86-1.37,3.79-2.07,5.59-.48,1.26-1,2.45-1.45,3.64.24-1.54.66-4.58.66-4.84a20.67,20.67,0,0,0-2.78-10.09A6.79,6.79,0,0,0,90,415a5.35,5.35,0,0,0-6.54-4.53c-4.36,1.16-7.12,8.82-7.33,12.85,0,.23.14,2.83.27,4.46-.22-.95-.42-1.87-.66-2.85-.46-1.93-1-3.84-1.52-5.9-.3-1-.6-2-.9-3s-.7-2-1.06-3c-.86-2.36-1.85-4.71-2.9-7.06,1.69-.4,7.67-1.92,10.07-3.77s4.92-4.83,4.9-8a5.33,5.33,0,0,0-5.77-5.47c-4.49.48-8.39,7.63-9.2,11.58,0,.25-.32,3.15-.43,4.74-.64-1.4-1.28-2.81-2-4.21-2-4-4.16-8.06-6.3-12.09-.65-1.23-1.29-2.47-1.93-3.71.6-.13,7.74-1.79,10.43-3.85,2.39-1.83,4.92-4.83,4.9-8a5.34,5.34,0,0,0-5.77-5.47c-4.49.49-8.38,7.64-9.2,11.58-.06.3-.43,4.47-.48,5.54-1.41-2.72-2.8-5.45-4.05-8.19a93.88,93.88,0,0,1-4.41-11.38c.28-.06,7.75-1.76,10.5-3.87,2.39-1.83,4.92-4.83,4.9-8a5.34,5.34,0,0,0-5.77-5.47c-4.49.49-8.38,7.64-9.2,11.59-.06.31-.47,4.8-.48,5.61-.07-.22-.17-.45-.23-.67a68.76,68.76,0,0,1-2.29-12c-.25-2.24-.36-4.4-.43-6.5,1.42-.17,7.91-1,10.6-2.66s5.42-4.27,5.75-7.43a5.35,5.35,0,0,0-5.13-6.08c-4.52,0-9.17,6.67-10.42,10.51-.07.21-.52,2.4-.82,4,0-.95,0-1.93,0-2.84,0-3.41.22-6.54.44-9.31.13-1.57.28-3,.44-4.31,1.31-.9,6.53-4.59,8.13-7.22s2.85-6.28,1.68-9.25a5.34,5.34,0,0,0-7.35-3c-4,2.07-5.07,10.15-4.4,14.12,0,.35,1.57,5.62,1.64,5.57l.08-.05c-.18,1.27-.35,2.64-.51,4.14-.28,2.76-.56,5.89-.64,9.32a95.38,95.38,0,0,0,.26,11.07,70.25,70.25,0,0,0,2.05,12.22,1.21,1.21,0,0,0,0,.14c-.71-1.12-2.8-4.17-3-4.39-2.64-3.05-9.53-7.39-13.68-5.62a5.34,5.34,0,0,0-2.37,7.59C31.43,365.13,35.1,366.51,38.08,367Z" style="fill:#263238"></path><path d="M115.49,345.74c.07,0,1.45-5.27,1.49-5.61.56-4-.71-12-4.78-14a5.33,5.33,0,0,0-7.27,3.22c-1.09,3,.29,6.67,1.93,9.19C108.78,341.51,115.49,345.73,115.49,345.74Z" style="fill:#263238"></path></g><g id="freepik--Graphics--inject-2"><path d="M675,87.18,663.75,75.93,675,64.68l11.25,11.25Zm-9.83-11.25L675,85.76l9.84-9.83L675,66.09Z" style="fill:#263238"></path><path d="M272.33,404.28l-7.63-7.63,7.63-7.64,7.64,7.64Zm-6.21-7.63,6.21,6.21,6.22-6.21-6.22-6.22Z" style="fill:#263238"></path><path d="M645.12,161.12l-7.63-7.63,7.63-7.64,7.63,7.64Zm-6.21-7.63,6.21,6.21,6.22-6.21-6.22-6.22Z" style="fill:#263238"></path><path d="M267.82,49.72l-7.63-7.64,7.63-7.63,7.63,7.63Zm-6.21-7.64,6.21,6.22L274,42.08l-6.22-6.21Z" style="fill:#263238"></path><path d="M77.17,282.66,65.92,271.41l11.25-11.25,11.25,11.25Zm-9.83-11.25,9.83,9.84L87,271.41l-9.84-9.83Z" style="fill:#263238"></path></g><g id="freepik--Coins--inject-2"><path d="M570.64,82.8h-3.2V78.52a9.37,9.37,0,0,1-6.93-3.18c-1.62-2-2.51-4.92-2.63-8.77l0-.44,7.45-1.26,0,.56a18.44,18.44,0,0,0,.47,3.72,4.28,4.28,0,0,0,1,2.06,2.27,2.27,0,0,0,1.66.61,1.61,1.61,0,0,0,1.52-.66,3.77,3.77,0,0,0,.45-1.86,6.36,6.36,0,0,0-1-3.63,16.11,16.11,0,0,0-2.87-3.08l-3.89-3.35a26.44,26.44,0,0,1-2.44-2.58,10.76,10.76,0,0,1-1.75-3.07,11.6,11.6,0,0,1-.65-4.06,9.47,9.47,0,0,1,2.6-7.07,10.52,10.52,0,0,1,6.41-2.82V35.52h3.2v4.11a8.73,8.73,0,0,1,3.82,1.16,7.26,7.26,0,0,1,2.57,2.66,12.27,12.27,0,0,1,1.25,3.39,24.66,24.66,0,0,1,.46,3.48l0,.46-7.56,1.11v-.57a19.8,19.8,0,0,0-.27-2.92,4,4,0,0,0-.72-1.81,1.6,1.6,0,0,0-1.42-.5,1.83,1.83,0,0,0-1.56.79,3.23,3.23,0,0,0-.57,1.87,4.86,4.86,0,0,0,.9,3.08,20.86,20.86,0,0,0,2.24,2.41L573,57.52a27.37,27.37,0,0,1,2.86,3A14.49,14.49,0,0,1,578,64.24a12.49,12.49,0,0,1,.81,4.65,10.39,10.39,0,0,1-1,4.64,8.71,8.71,0,0,1-3,3.42,9.6,9.6,0,0,1-4.15,1.49Zm-2.2-1h1.2V77.54l.46,0a8.93,8.93,0,0,0,4.14-1.38,7.8,7.8,0,0,0,2.66-3,9.34,9.34,0,0,0,.93-4.19,11.56,11.56,0,0,0-.74-4.28,13.82,13.82,0,0,0-2-3.42,25.3,25.3,0,0,0-2.74-2.92L568.58,55a22.22,22.22,0,0,1-2.36-2.54,5.81,5.81,0,0,1-1.11-3.69,4.21,4.21,0,0,1,.75-2.44,2.83,2.83,0,0,1,2.34-1.22,2.62,2.62,0,0,1,2.24.87,4.93,4.93,0,0,1,.93,2.27,21.18,21.18,0,0,1,.26,2.5l5.53-.81a23.47,23.47,0,0,0-.41-2.88,11.32,11.32,0,0,0-1.14-3.11,6.42,6.42,0,0,0-2.23-2.29,8,8,0,0,0-3.82-1l-.47,0v-4h-1.2v4l-.46,0a9.73,9.73,0,0,0-6.25,2.59,8.5,8.5,0,0,0-2.3,6.35,10.78,10.78,0,0,0,.58,3.71A9.93,9.93,0,0,0,561.05,56a26.73,26.73,0,0,0,2.34,2.47l3.87,3.33a17.1,17.1,0,0,1,3,3.27,7.36,7.36,0,0,1,1.16,4.2,4.56,4.56,0,0,1-.59,2.35,2.5,2.5,0,0,1-2.38,1.17,3.24,3.24,0,0,1-2.36-.9,5.22,5.22,0,0,1-1.3-2.52,18,18,0,0,1-.47-3.36L558.9,67c.16,3.41,1,6,2.38,7.73s3.7,2.73,6.68,2.84l.48,0Z" style="fill:#263238"></path><path d="M568.23,94.46a35.3,35.3,0,1,1,35.29-35.3A35.34,35.34,0,0,1,568.23,94.46Zm0-69.59a34.3,34.3,0,1,0,34.29,34.29A34.33,34.33,0,0,0,568.23,24.87Z" style="fill:#263238"></path><path d="M568.23,88.91A29.75,29.75,0,1,1,598,59.16,29.78,29.78,0,0,1,568.23,88.91Zm0-58.5A28.75,28.75,0,1,0,597,59.16,28.79,28.79,0,0,0,568.23,30.41Z" style="fill:#263238"></path><path d="M72,128.18h-3.2V123.9a9.39,9.39,0,0,1-6.94-3.18c-1.62-2-2.5-4.92-2.63-8.77v-.44l7.44-1.26,0,.56a18.52,18.52,0,0,0,.46,3.72,4.37,4.37,0,0,0,1,2.06,2.29,2.29,0,0,0,1.67.61,1.59,1.59,0,0,0,1.51-.66,3.77,3.77,0,0,0,.46-1.86,6.29,6.29,0,0,0-1-3.63A16.35,16.35,0,0,0,68,108l-3.89-3.34A26.58,26.58,0,0,1,61.64,102,10.76,10.76,0,0,1,59.89,99a11.66,11.66,0,0,1-.65-4.07,9.5,9.5,0,0,1,2.6-7.06A10.52,10.52,0,0,1,68.26,85V80.9h3.2V85a8.69,8.69,0,0,1,3.81,1.16,7.29,7.29,0,0,1,2.58,2.66,11.94,11.94,0,0,1,1.24,3.39,23,23,0,0,1,.47,3.48l0,.46L72,97.27l0-.57a21.39,21.39,0,0,0-.26-2.92A4,4,0,0,0,71,92a1.69,1.69,0,0,0-1.43-.5,1.82,1.82,0,0,0-1.55.79,3.16,3.16,0,0,0-.58,1.87,4.87,4.87,0,0,0,.9,3.07,21.06,21.06,0,0,0,2.24,2.42l3.79,3.28a27.28,27.28,0,0,1,2.85,3,14.83,14.83,0,0,1,2.14,3.68,12.69,12.69,0,0,1,.81,4.65,10.4,10.4,0,0,1-1,4.64,8.64,8.64,0,0,1-3,3.42A9.56,9.56,0,0,1,72,123.82Zm-2.2-1H71v-4.26l.45,0a8.89,8.89,0,0,0,4.14-1.38,7.83,7.83,0,0,0,2.67-3,9.34,9.34,0,0,0,.93-4.19,11.56,11.56,0,0,0-.74-4.28,13.55,13.55,0,0,0-2-3.42,25.25,25.25,0,0,0-2.74-2.92l-3.79-3.29a22.1,22.1,0,0,1-2.35-2.54,5.82,5.82,0,0,1-1.12-3.69,4.2,4.2,0,0,1,.76-2.44,2.82,2.82,0,0,1,2.34-1.22,2.59,2.59,0,0,1,2.23.87,4.89,4.89,0,0,1,.93,2.26A19.61,19.61,0,0,1,73,96.11l5.54-.81a21.52,21.52,0,0,0-.42-2.88A11,11,0,0,0,77,89.31,6.26,6.26,0,0,0,74.74,87a8,8,0,0,0-3.81-1l-.47,0v-4h-1.2v4l-.46,0a9.75,9.75,0,0,0-6.26,2.59,8.53,8.53,0,0,0-2.3,6.34,10.64,10.64,0,0,0,.59,3.72,9.69,9.69,0,0,0,1.59,2.79,26.58,26.58,0,0,0,2.33,2.47l3.88,3.32a17.43,17.43,0,0,1,3,3.28,7.36,7.36,0,0,1,1.16,4.2,4.66,4.66,0,0,1-.59,2.35,2.52,2.52,0,0,1-2.38,1.17,3.23,3.23,0,0,1-2.36-.9,5.14,5.14,0,0,1-1.31-2.52,18.85,18.85,0,0,1-.47-3.36l-5.46.93c.17,3.41,1,6,2.39,7.73s3.7,2.73,6.68,2.84l.48,0Z" style="fill:#263238"></path><path d="M69.59,139.83a35.29,35.29,0,1,1,35.3-35.29A35.33,35.33,0,0,1,69.59,139.83Zm0-69.58a34.29,34.29,0,1,0,34.3,34.29A34.33,34.33,0,0,0,69.59,70.25Z" style="fill:#263238"></path><path d="M69.59,134.29a29.75,29.75,0,1,1,29.75-29.75A29.79,29.79,0,0,1,69.59,134.29Zm0-58.5a28.75,28.75,0,1,0,28.75,28.75A28.79,28.79,0,0,0,69.59,75.79Z" style="fill:#263238"></path><path d="M197.83,426.23h-3.2V422a9.37,9.37,0,0,1-6.93-3.18c-1.62-2-2.51-4.92-2.63-8.77l0-.44,7.45-1.26,0,.56a18.44,18.44,0,0,0,.47,3.72,4.19,4.19,0,0,0,1,2.05,2.23,2.23,0,0,0,1.66.62,1.57,1.57,0,0,0,1.51-.67,3.6,3.6,0,0,0,.46-1.85,6.29,6.29,0,0,0-1-3.63A16,16,0,0,0,193.8,406l-3.89-3.34a26.44,26.44,0,0,1-2.44-2.58,10.53,10.53,0,0,1-1.75-3.07,11.41,11.41,0,0,1-.65-4.06,9.5,9.5,0,0,1,2.59-7.07,10.52,10.52,0,0,1,6.42-2.82V379h3.2v4.11a8.73,8.73,0,0,1,3.82,1.16,7.26,7.26,0,0,1,2.57,2.66,11.94,11.94,0,0,1,1.24,3.39,23,23,0,0,1,.47,3.48l0,.46-7.56,1.11v-.57a19.93,19.93,0,0,0-.27-2.92,4,4,0,0,0-.72-1.81,1.63,1.63,0,0,0-1.42-.5,1.82,1.82,0,0,0-1.56.79,3.23,3.23,0,0,0-.57,1.87,4.81,4.81,0,0,0,.9,3.07,20.89,20.89,0,0,0,2.23,2.42l3.79,3.28a27.37,27.37,0,0,1,2.86,3,14.79,14.79,0,0,1,2.13,3.68,12.49,12.49,0,0,1,.81,4.65,10.53,10.53,0,0,1-1,4.64,8.79,8.79,0,0,1-3,3.42,9.6,9.6,0,0,1-4.15,1.49Zm-2.2-1h1.2V421l.45,0a8.75,8.75,0,0,0,4.14-1.39,7.58,7.58,0,0,0,2.67-3,9.34,9.34,0,0,0,.93-4.19,11.56,11.56,0,0,0-.74-4.28,13.38,13.38,0,0,0-2-3.42,25.16,25.16,0,0,0-2.73-2.92l-3.79-3.29a21.35,21.35,0,0,1-2.36-2.54,5.81,5.81,0,0,1-1.11-3.69,4.19,4.19,0,0,1,.75-2.44,2.81,2.81,0,0,1,2.34-1.22,2.59,2.59,0,0,1,2.24.87,4.82,4.82,0,0,1,.92,2.27,21.28,21.28,0,0,1,.27,2.5l5.53-.81a21.76,21.76,0,0,0-.42-2.88,11,11,0,0,0-1.13-3.11,6.42,6.42,0,0,0-2.23-2.29,8.06,8.06,0,0,0-3.82-1.05l-.47,0V380h-1.2v4l-.46,0a9.78,9.78,0,0,0-6.26,2.59,8.53,8.53,0,0,0-2.29,6.35,10.63,10.63,0,0,0,.58,3.71,9.93,9.93,0,0,0,1.59,2.79,26.73,26.73,0,0,0,2.34,2.47l3.87,3.32a17.43,17.43,0,0,1,3,3.28,7.36,7.36,0,0,1,1.16,4.2,4.66,4.66,0,0,1-.59,2.35,2.5,2.5,0,0,1-2.38,1.17,3.24,3.24,0,0,1-2.36-.9,5.14,5.14,0,0,1-1.3-2.52,18,18,0,0,1-.47-3.36l-5.47.93c.17,3.41,1,6,2.39,7.73s3.7,2.73,6.68,2.84l.48,0Z" style="fill:#263238"></path><path d="M195.42,437.88a35.29,35.29,0,1,1,35.29-35.29A35.34,35.34,0,0,1,195.42,437.88Zm0-69.58a34.29,34.29,0,1,0,34.29,34.29A34.33,34.33,0,0,0,195.42,368.3Z" style="fill:#263238"></path><path d="M195.42,432.34a29.75,29.75,0,1,1,29.75-29.75A29.78,29.78,0,0,1,195.42,432.34Zm0-58.5a28.75,28.75,0,1,0,28.75,28.75A28.79,28.79,0,0,0,195.42,373.84Z" style="fill:#263238"></path></g><g id="freepik--Device--inject-2"><polygon points="431.31 434.06 318.69 434.06 335.58 371.89 414.42 371.89 431.31 434.06" style="fill:#fff"></polygon><path d="M431.31,434.56H318.69a.52.52,0,0,1-.4-.2.49.49,0,0,1-.08-.44l16.89-62.16a.5.5,0,0,1,.48-.37h78.84a.5.5,0,0,1,.48.37l16.89,62.16a.49.49,0,0,1-.08.44A.52.52,0,0,1,431.31,434.56Zm-112-1H430.66L414,372.39H336Z" style="fill:#263238"></path><polygon points="423.66 405.89 414.42 371.89 335.58 371.89 326.34 405.89 423.66 405.89" style="fill:#263238"></polygon><path d="M423.66,406.39H326.34a.49.49,0,0,1-.48-.63l9.24-34a.5.5,0,0,1,.48-.37h78.84a.5.5,0,0,1,.48.37l9.24,34a.49.49,0,0,1-.48.63Zm-96.67-1h96l-9-33H336Z" style="fill:#263238"></path><rect x="289.41" y="434.06" width="171.19" height="6.31" style="fill:#fff"></rect><path d="M460.59,440.86H289.41a.5.5,0,0,1-.5-.5v-6.3a.5.5,0,0,1,.5-.5H460.59a.5.5,0,0,1,.5.5v6.3A.5.5,0,0,1,460.59,440.86Zm-170.68-1H460.09v-5.3H289.91Z" style="fill:#263238"></path><rect x="131.54" y="69.32" width="486.91" height="309.09" style="fill:#fff"></rect><path d="M618.46,378.91H131.54a.5.5,0,0,1-.5-.5V69.32a.51.51,0,0,1,.5-.5H618.46a.51.51,0,0,1,.5.5V378.41A.5.5,0,0,1,618.46,378.91Zm-486.42-1H618V69.82H132Z" style="fill:#263238"></path><polyline points="279.62 366.63 147.15 366.63 147.15 81.11 602.85 81.11 602.85 366.63 291.05 366.63" style="fill:#fff"></polyline><path d="M602.85,367.13H291.05a.5.5,0,0,1,0-1h311.3V81.61H147.65V366.13h132a.5.5,0,0,1,0,1H147.15a.5.5,0,0,1-.5-.5V81.11a.5.5,0,0,1,.5-.5h455.7a.5.5,0,0,1,.5.5V366.63A.5.5,0,0,1,602.85,367.13Z" style="fill:#263238"></path></g><g id="freepik--Cart--inject-2"><path d="M388.79,220.72h-.05a.49.49,0,0,1-.45-.54l3.28-34.82a.5.5,0,1,1,1,.09l-3.28,34.82A.5.5,0,0,1,388.79,220.72Z" style="fill:#263238"></path><path d="M382.16,220.72h0a.5.5,0,0,1-.47-.52l2-34.83a.52.52,0,0,1,.53-.47.5.5,0,0,1,.47.53l-2,34.82A.5.5,0,0,1,382.16,220.72Z" style="fill:#263238"></path><path d="M375.54,220.72h0a.5.5,0,0,1-.49-.51l.68-34.83a.51.51,0,0,1,.5-.49h0a.5.5,0,0,1,.49.51L376,220.23A.51.51,0,0,1,375.54,220.72Z" style="fill:#263238"></path><path d="M368.92,220.72a.5.5,0,0,1-.5-.5l-.62-34.82a.51.51,0,0,1,.49-.51.53.53,0,0,1,.51.49l.62,34.83a.52.52,0,0,1-.49.51Z" style="fill:#263238"></path><path d="M362.29,220.72a.51.51,0,0,1-.5-.48l-1.91-34.82a.51.51,0,0,1,.47-.53.5.5,0,0,1,.53.47l1.91,34.83a.49.49,0,0,1-.47.52Z" style="fill:#263238"></path><path d="M355.67,220.72a.51.51,0,0,1-.5-.46L352,185.44a.51.51,0,0,1,.45-.55.51.51,0,0,1,.55.46l3.21,34.82a.5.5,0,0,1-.45.54Z" style="fill:#263238"></path><path d="M349.05,220.72a.51.51,0,0,1-.5-.44L344,185.46a.5.5,0,0,1,1-.13l4.5,34.82a.49.49,0,0,1-.43.56Z" style="fill:#263238"></path><path d="M398.76,193.27H337.3a.51.51,0,0,1-.5-.5.5.5,0,0,1,.5-.5h61.46a.5.5,0,0,1,.5.5A.51.51,0,0,1,398.76,193.27Z" style="fill:#263238"></path><path d="M397.8,200.78H338.53a.51.51,0,0,1-.5-.5.5.5,0,0,1,.5-.5H397.8a.5.5,0,0,1,.5.5A.5.5,0,0,1,397.8,200.78Z" style="fill:#263238"></path><path d="M397.12,208.29H339.49a.5.5,0,0,1-.5-.5.5.5,0,0,1,.5-.5h57.63a.5.5,0,0,1,.5.5A.51.51,0,0,1,397.12,208.29Z" style="fill:#263238"></path><path d="M396.57,215.8H341.13a.5.5,0,0,1,0-1h55.44a.5.5,0,0,1,0,1Z" style="fill:#263238"></path><path d="M395.48,222.67h-53.4a1.5,1.5,0,0,1-1.47-1.23l-6.56-36.05a1.51,1.51,0,0,1,1.48-1.77h63.15l2-15.89a1.5,1.5,0,0,1,.62-1l7-4.92a1.5,1.5,0,1,1,1.73,2.45l-6.43,4.54-6.6,52.6A1.51,1.51,0,0,1,395.48,222.67Zm-52.15-3h50.82l4.16-33h-61Z" style="fill:#263238"></path><path d="M393.13,242.48a4.37,4.37,0,1,1,4.37,4.37A4.37,4.37,0,0,1,393.13,242.48Z" style="fill:#263238"></path><path d="M397.5,247.35a4.87,4.87,0,1,1,4.87-4.87A4.88,4.88,0,0,1,397.5,247.35Zm0-8.74a3.87,3.87,0,1,0,3.87,3.87A3.87,3.87,0,0,0,397.5,238.61Z" style="fill:#263238"></path><path d="M398.21,236.88v5.32h-2s.82-2.32-.55-2.87-3.55-1.91-3.82-2.73Z" style="fill:#8a8a8a"></path><path d="M346,242.48a4.37,4.37,0,1,1,4.37,4.37A4.37,4.37,0,0,1,346,242.48Z" style="fill:#263238"></path><path d="M350.39,247.35a4.87,4.87,0,1,1,4.87-4.87A4.88,4.88,0,0,1,350.39,247.35Zm0-8.74a3.87,3.87,0,1,0,3.87,3.87A3.87,3.87,0,0,0,350.39,238.61Z" style="fill:#263238"></path><path d="M351.09,236.88v5.32h-2s.82-2.32-.55-2.87-3.55-1.91-3.82-2.73Z" style="fill:#8a8a8a"></path><path d="M397.58,237.42H343.17a1.5,1.5,0,0,1,0-3h54.41a2.43,2.43,0,0,0,2.07-3.72L394.2,222a1.5,1.5,0,0,1,2.55-1.58l5.44,8.73a5.44,5.44,0,0,1-4.61,8.31Z" style="fill:#263238"></path></g><g id="freepik--Pictures--inject-2"><rect x="156.24" y="155.78" width="64.08" height="90.02" style="fill:#fff"></rect><path d="M220.32,246.3H156.24a.5.5,0,0,1-.5-.5v-90a.5.5,0,0,1,.5-.5h64.08a.5.5,0,0,1,.5.5v90A.5.5,0,0,1,220.32,246.3Zm-63.58-1h63.08v-89H156.74Z" style="fill:#263238"></path><polygon points="220.32 181.48 211.09 170.65 191.25 205.18 178.16 196.84 156.24 245.8 220.32 245.8 220.32 181.48" style="fill:#92E3A9"></polygon><path d="M220.32,246.3H156.24a.5.5,0,0,1-.42-.23.49.49,0,0,1,0-.47l21.92-49a.48.48,0,0,1,.31-.28.49.49,0,0,1,.41.06l12.66,8.05,19.58-34.07a.52.52,0,0,1,.39-.25.54.54,0,0,1,.43.17l9.22,10.84a.47.47,0,0,1,.12.32V245.8A.5.5,0,0,1,220.32,246.3Zm-63.31-1h62.81V181.67l-8.65-10.16-19.48,33.91a.51.51,0,0,1-.32.24.54.54,0,0,1-.39-.06l-12.6-8Z" style="fill:#263238"></path><path d="M178.55,172.63a6.75,6.75,0,1,1-6.74-6.74A6.75,6.75,0,0,1,178.55,172.63Z" style="fill:#92E3A9"></path><path d="M171.81,179.88a7.25,7.25,0,1,1,7.24-7.25A7.26,7.26,0,0,1,171.81,179.88Zm0-13.49a6.25,6.25,0,1,0,6.24,6.24A6.25,6.25,0,0,0,171.81,166.39Z" style="fill:#263238"></path><rect x="156.24" y="256.67" width="64.08" height="90.02" style="fill:#fff"></rect><path d="M220.32,347.18H156.24a.5.5,0,0,1-.5-.5v-90a.5.5,0,0,1,.5-.5h64.08a.5.5,0,0,1,.5.5v90A.5.5,0,0,1,220.32,347.18Zm-63.58-1h63.08v-89H156.74Z" style="fill:#263238"></path><polygon points="220.32 282.37 211.09 271.53 191.25 306.06 178.16 297.73 156.24 346.69 220.32 346.69 220.32 282.37" style="fill:#92E3A9"></polygon><path d="M220.32,347.18H156.24a.5.5,0,0,1-.42-.22.51.51,0,0,1,0-.48l21.92-49a.49.49,0,0,1,.31-.27.46.46,0,0,1,.41.05l12.66,8.06,19.58-34.08a.52.52,0,0,1,.39-.25.52.52,0,0,1,.43.18L220.7,282a.5.5,0,0,1,.12.33v64.31A.5.5,0,0,1,220.32,347.18Zm-63.31-1h62.81V282.55l-8.65-10.15-19.48,33.91a.5.5,0,0,1-.32.23.45.45,0,0,1-.39-.06l-12.6-8Z" style="fill:#263238"></path><path d="M178.55,273.52a6.75,6.75,0,1,1-6.74-6.75A6.74,6.74,0,0,1,178.55,273.52Z" style="fill:#92E3A9"></path><path d="M171.81,280.76a7.25,7.25,0,1,1,7.24-7.24A7.25,7.25,0,0,1,171.81,280.76Zm0-13.49a6.25,6.25,0,1,0,6.24,6.25A6.25,6.25,0,0,0,171.81,267.27Z" style="fill:#263238"></path><rect x="531.2" y="155.78" width="64.08" height="90.02" style="fill:#fff"></rect><path d="M595.29,246.3H531.2a.5.5,0,0,1-.5-.5v-90a.51.51,0,0,1,.5-.5h64.09a.51.51,0,0,1,.5.5v90A.5.5,0,0,1,595.29,246.3Zm-63.59-1h63.09v-89H531.7Z" style="fill:#263238"></path><polygon points="595.29 181.48 586.06 170.65 566.22 205.18 553.12 196.84 531.21 245.8 595.29 245.8 595.29 181.48" style="fill:#92E3A9"></polygon><path d="M595.29,246.3H531.2a.52.52,0,0,1-.42-.23.49.49,0,0,1,0-.47l21.92-49a.46.46,0,0,1,.31-.28.49.49,0,0,1,.41.06l12.66,8.05,19.58-34.07a.51.51,0,0,1,.38-.25.53.53,0,0,1,.43.17l9.23,10.84a.47.47,0,0,1,.12.32V245.8A.5.5,0,0,1,595.29,246.3Zm-63.31-1h62.81V181.67l-8.65-10.16-19.49,33.91a.49.49,0,0,1-.31.24.53.53,0,0,1-.39-.06l-12.61-8Z" style="fill:#263238"></path><path d="M553.52,172.63a6.75,6.75,0,1,1-6.75-6.74A6.75,6.75,0,0,1,553.52,172.63Z" style="fill:#92E3A9"></path><path d="M546.77,179.88a7.25,7.25,0,1,1,7.25-7.25A7.25,7.25,0,0,1,546.77,179.88Zm0-13.49a6.25,6.25,0,1,0,6.25,6.24A6.25,6.25,0,0,0,546.77,166.39Z" style="fill:#263238"></path><rect x="531.2" y="256.67" width="64.08" height="90.02" style="fill:#fff"></rect><path d="M595.29,347.18H531.2a.5.5,0,0,1-.5-.5v-90a.5.5,0,0,1,.5-.5h64.09a.5.5,0,0,1,.5.5v90A.5.5,0,0,1,595.29,347.18Zm-63.59-1h63.09v-89H531.7Z" style="fill:#263238"></path><polygon points="595.29 282.37 586.06 271.53 566.22 306.06 553.12 297.73 531.21 346.69 595.29 346.69 595.29 282.37" style="fill:#92E3A9"></polygon><path d="M595.29,347.18H531.2a.49.49,0,0,1-.45-.7l21.92-49a.47.47,0,0,1,.31-.27.46.46,0,0,1,.41.05l12.66,8.06,19.58-34.08A.51.51,0,0,1,586,271a.53.53,0,0,1,.43.18L595.67,282a.5.5,0,0,1,.12.33v64.31A.5.5,0,0,1,595.29,347.18Zm-63.31-1h62.81V282.55l-8.65-10.15-19.49,33.91a.48.48,0,0,1-.31.23.49.49,0,0,1-.39-.06l-12.61-8Z" style="fill:#263238"></path><path d="M553.52,273.52a6.75,6.75,0,1,1-6.75-6.75A6.75,6.75,0,0,1,553.52,273.52Z" style="fill:#92E3A9"></path><path d="M546.77,280.76a7.25,7.25,0,1,1,7.25-7.24A7.25,7.25,0,0,1,546.77,280.76Zm0-13.49a6.25,6.25,0,1,0,6.25,6.25A6.25,6.25,0,0,0,546.77,267.27Z" style="fill:#263238"></path></g><g id="freepik--Character--inject-2"><path d="M712.39,352s-.86,7.37.22,10.41,8,23.84,9.1,42.27,2.17,35.34,1.52,36.21-4.55.43-4.55.43h-13a1.55,1.55,0,0,1-.44-1.95c.65-1.08,6.94-5.85,7.8-7.37a16.87,16.87,0,0,0,2-4.33c0-.65-1.52-16.49-6.72-26.9s-11.92-36-12.57-45.3Z" style="fill:#fff"></path><path d="M720.7,441.94c-.8,0-1.58-.07-2.08-.12H705.68a.52.52,0,0,1-.32-.11,2,2,0,0,1-.55-2.6,24.07,24.07,0,0,1,3.42-3.2,32.27,32.27,0,0,0,4.38-4.16,17,17,0,0,0,1.89-4.08c0-1.15-1.66-16.66-6.67-26.67-5.2-10.4-12-36-12.62-45.49a.5.5,0,0,1,.39-.53l16.69-3.47a.54.54,0,0,1,.44.12.5.5,0,0,1,.16.43c0,.07-.84,7.29.19,10.18.08.22,8,22.49,9.13,42.41l.34,5.63c1.29,21.76,1.71,30.06,1.08,30.91C723.18,441.78,721.91,441.94,720.7,441.94Zm-14.83-1.12h12.81c2,.21,3.9.1,4.15-.23.44-1.14-.43-15.94-1.28-30.25l-.34-5.63c-1.16-19.78-9-41.91-9.07-42.13-.92-2.59-.5-8-.31-9.95l-15.59,3.24c.82,9.75,7.41,34.53,12.48,44.68,5.42,10.83,6.78,27,6.78,27.12,0,1-1.82,4.22-2,4.58-.52.91-2.59,2.69-4.6,4.41a28.88,28.88,0,0,0-3.21,3A1,1,0,0,0,705.87,440.82Z" style="fill:#263238"></path><path d="M705.24,439.37a44.84,44.84,0,0,1,4.55-4.16v2.21h13.62a11.47,11.47,0,0,1-.18,3.47c-.65.86-4.55.43-4.55.43h-13A1.55,1.55,0,0,1,705.24,439.37Z" style="fill:#92E3A9"></path><path d="M720.7,441.94c-.8,0-1.58-.07-2.08-.12H705.68a.52.52,0,0,1-.32-.11,2,2,0,0,1-.55-2.6h0a24.36,24.36,0,0,1,3.41-3.2l1.24-1.07a.51.51,0,0,1,.54-.08.49.49,0,0,1,.29.45v1.71h13.12a.49.49,0,0,1,.5.49c.06,3.06-.1,3.53-.28,3.78C723.18,441.78,721.91,441.94,720.7,441.94Zm-14.83-1.12h12.81c2,.21,3.9.1,4.15-.23a13.74,13.74,0,0,0,.09-2.67H709.79a.5.5,0,0,1-.5-.5v-1.11l-.42.36a29.69,29.69,0,0,0-3.2,3h0A1,1,0,0,0,705.87,440.82Zm-.63-1.45h0Z" style="fill:#263238"></path><path d="M698.52,353.09s-3,21.68-.86,28.18,1.3,18.2-1.74,30.56-5.42,20.15-5.42,20.8,0,6.51-.65,7.59-19.72.87-21,.87-2.6-1.3-1.52-2.6,7-2.72,10.84-4.56c3.68-1.73,3.9-2.16,3.9-2.16s2.17-25.36,1.3-36.63-5.65-34.68-4.78-42.48Z" style="fill:#fff"></path><path d="M673.49,441.6h-4.66a2.53,2.53,0,0,1-2.25-1.35,1.9,1.9,0,0,1,.35-2.07c.69-.83,2.61-1.54,5.69-2.62,1.83-.65,3.73-1.32,5.32-2.07a23,23,0,0,0,3.63-1.94c.19-2.35,2.1-25.77,1.28-36.36-.33-4.36-1.24-10.47-2.21-16.95-1.53-10.22-3.11-20.79-2.57-25.63a.47.47,0,0,1,.51-.44l19.95.43a.5.5,0,0,1,.49.57c0,.21-3,21.63-.89,27.95S699.6,399,696.41,412c-1.77,7.2-3.29,12.77-4.3,16.45-.61,2.22-1.09,4-1.11,4.24,0,2.47-.09,6.79-.72,7.84C690,440.88,689.6,441.6,673.49,441.6ZM679,353.17c-.38,4.9,1.14,15.07,2.61,24.91,1,6.5,1.88,12.63,2.22,17,.86,11.18-1.28,36.46-1.3,36.71a.41.41,0,0,1,0,.18c-.2.39-1.59,1.2-4.14,2.4-1.63.77-3.55,1.44-5.41,2.1-2.31.82-4.7,1.66-5.25,2.32a.91.91,0,0,0-.21,1,1.52,1.52,0,0,0,1.34.77h.64c16.78.12,19.54-.47,20-.69.33-.7.54-3.58.54-7.27a40.93,40.93,0,0,1,1.14-4.49c1-3.68,2.53-9.24,4.3-16.43,3.14-12.81,3.79-24.13,1.74-30.28s.3-24.34.77-27.85Zm10.48,86.71Z" style="fill:#263238"></path><path d="M668.83,441.09c-1.3,0-2.6-1.3-1.52-2.6.88-1.05,4.85-2.18,8.39-3.53l.72,1.58,14-1.06c-.07,1.89-.23,4.11-.61,4.74C689.2,441.3,670.13,441.09,668.83,441.09Z" style="fill:#92E3A9"></path><path d="M673.49,441.6h-4.66a2.53,2.53,0,0,1-2.25-1.35,1.9,1.9,0,0,1,.35-2.07c.69-.83,2.61-1.54,5.68-2.62,1-.34,1.95-.69,2.91-1.06a.51.51,0,0,1,.64.26l.57,1.26,13.69-1a.49.49,0,0,1,.38.14.55.55,0,0,1,.16.38c-.14,3.68-.45,4.6-.68,5S689.6,441.6,673.49,441.6Zm2-6-2.49.9c-2.32.82-4.7,1.66-5.25,2.32a.91.91,0,0,0-.21,1,1.52,1.52,0,0,0,1.34.77h.64c16.77.12,19.54-.47,20-.69a13.11,13.11,0,0,0,.47-3.88l-13.48,1a.5.5,0,0,1-.49-.29Z" style="fill:#263238"></path><path d="M710.63,279.57s7.4,16.08,8,25.84-3.47,20.37-3.47,20.37l2.6,28s-8.67,5.42-23.19,5.2-21.67-2.6-21.67-2.6-1.74-34,2.82-50.5,2.93-25.46,2.93-25.46S698.89,281.26,710.63,279.57Z" style="fill:#263238"></path><path d="M695.48,359.45h-.87c-14.43-.22-21.52-2.53-21.82-2.63a.5.5,0,0,1-.34-.45c0-.34-1.69-34.29,2.83-50.65,4.47-16.15,2.94-25.15,2.93-25.24a.5.5,0,0,1,.11-.42.59.59,0,0,1,.4-.17c.2,0,20.28.86,31.84-.81a.51.51,0,0,1,.52.29c.3.66,7.45,16.28,8.1,26,.61,9.22-3,19.3-3.46,20.48l2.59,27.84a.49.49,0,0,1-.23.47C717.73,354.38,709.46,359.45,695.48,359.45ZM673.43,356c1.55.45,8.63,2.29,21.2,2.48,12.84.19,21.11-4.1,22.66-5l-2.58-27.64a.59.59,0,0,1,0-.23c0-.11,4.07-10.64,3.43-20.16-.58-8.78-6.79-23-7.85-25.32-10.55,1.44-27.64.91-31.05.79.28,2.29.89,10.88-3,25.06C672,321.29,673.27,352.31,673.43,356Z" style="fill:#263238"></path><path d="M683.1,217.34s2.12,7,2.93,10.92-1.3,11.4-4.07,16.61-5.87,10.75-4.4,15.48,2.12,6.51,2.12,6.51-1.14,11.57-1,13.52,8.47,3.91,16.78,3.1,14.5-2.45,15.15-3.91,0-9.61,1.14-13.85,1.46-23.94-1.14-28.18S702,226.63,702,226.63l-4.88-12.87Z" style="fill:#92E3A9"></path><path d="M691.47,284.17c-5.8,0-10.87-1.18-12.57-2.59a1.76,1.76,0,0,1-.7-1.16c-.16-1.89.84-12.23,1-13.5-.16-.45-.83-2.37-2.09-6.42-1.47-4.76,1.38-10.12,4.14-15.31l.3-.55c2.61-4.93,4.84-12.37,4-16.28s-2.9-10.8-2.92-10.87a.48.48,0,0,1,0-.39.49.49,0,0,1,.31-.24l14-3.59a.52.52,0,0,1,.6.31l4.85,12.78c.68.77,6.14,6.88,8.62,10.92,2.75,4.47,2.35,24.3,1.2,28.57a43.15,43.15,0,0,0-.76,8.91c0,2.73-.1,4.32-.41,5-.91,2.07-9,3.56-15.55,4.21C694.16,284.11,692.79,284.17,691.47,284.17Zm-7.74-66.47c.49,1.68,2.11,7.17,2.79,10.45.86,4.14-1.42,11.87-4.12,17l-.3.55c-2.66,5-5.41,10.18-4.06,14.54,1.44,4.65,2.1,6.47,2.11,6.49a.55.55,0,0,1,0,.22c0,.12-1.13,11.54-1,13.43a.81.81,0,0,0,.34.47c1.89,1.57,9.08,2.84,15.89,2.17,9.47-.93,14.32-2.67,14.74-3.61a22.06,22.06,0,0,0,.32-4.63,43.13,43.13,0,0,1,.8-9.15c1.16-4.33,1.32-23.87-1.09-27.79-2.55-4.14-8.52-10.77-8.58-10.84a.46.46,0,0,1-.09-.15l-4.73-12.46Z" style="fill:#263238"></path><path d="M704.45,229.45a16.34,16.34,0,0,0-9.13.6c-3.19,1.22-7.29,4.38-10.21,6.84.93-3.31,1.36-6.5.92-8.63-.81-3.91-2.93-10.92-2.93-10.92l14-3.58L702,226.63S703,227.79,704.45,229.45Z" style="fill:#fff"></path><path d="M685.11,237.39a.47.47,0,0,1-.27-.08.5.5,0,0,1-.21-.55c1-3.51,1.31-6.49.91-8.4-.8-3.84-2.9-10.8-2.92-10.87a.48.48,0,0,1,0-.39.49.49,0,0,1,.31-.24l14-3.59a.52.52,0,0,1,.6.31l4.85,12.78c.24.28,1.19,1.34,2.4,2.76a.5.5,0,0,1,0,.58.5.5,0,0,1-.54.24,15.92,15.92,0,0,0-8.85.58c-3.12,1.19-7.19,4.33-10,6.75A.52.52,0,0,1,685.11,237.39Zm-1.38-19.69c.49,1.68,2.11,7.17,2.79,10.45a18.27,18.27,0,0,1-.53,7.37c2.79-2.28,6.31-4.85,9.15-5.94a16.73,16.73,0,0,1,8-.86c-.93-1.07-1.55-1.76-1.55-1.76a.46.46,0,0,1-.09-.15l-4.73-12.46Z" style="fill:#263238"></path><path d="M676.64,190.69s-2,5.22-2.65,7.45-1.72,4.42-3,4.62-2.56,1.24-1.74,3a15.61,15.61,0,0,0,3.09,3.72s1.19,8.45,2.07,9.52,5,1,7.49.36,7.33-1.45,7.33-1.45,1.57-17,.59-20.56-5.26-8.66-6.51-9.27S676.64,190.69,676.64,190.69Z" style="fill:#fff"></path><path d="M677.81,220.24c-1.66,0-3.23-.24-3.84-1-.89-1.08-1.9-7.82-2.15-9.59a15.18,15.18,0,0,1-3.07-3.75,2.38,2.38,0,0,1-.07-2.26,2.9,2.9,0,0,1,2.19-1.4c.87-.14,1.83-1.7,2.64-4.28.69-2.22,2.64-7.42,2.66-7.47a.49.49,0,0,1,.21-.26c1.31-.8,5.71-3.35,7.1-2.68s5.78,6,6.77,9.59-.51,20-.57,20.73a.5.5,0,0,1-.41.45s-4.84.87-7.31,1.45A20.53,20.53,0,0,1,677.81,220.24ZM677,191c-.33.9-2,5.29-2.58,7.26-1,3.13-2.1,4.76-3.44,5a2,2,0,0,0-1.46.87,1.48,1.48,0,0,0,.09,1.36,15.42,15.42,0,0,0,3,3.57.51.51,0,0,1,.17.3c.48,3.45,1.41,8.61,2,9.27s4.22.84,7,.19c2.08-.49,5.79-1.17,7-1.39.22-2.52,1.43-16.88.57-20-.94-3.37-5.13-8.41-6.25-9C682.44,188.19,679.5,189.55,677,191Z" style="fill:#263238"></path><path d="M675.66,201.23c-.08.9.18,1.66.58,1.69s.8-.65.88-1.55-.17-1.65-.58-1.69S675.75,200.34,675.66,201.23Z" style="fill:#263238"></path><path d="M679.8,199.5a.5.5,0,0,1-.39-.18c-.58-.7-2.34-2.37-3.45-1.74a.49.49,0,0,1-.68-.18.5.5,0,0,1,.18-.68c2.08-1.19,4.61,1.83,4.72,2a.49.49,0,0,1-.06.7A.51.51,0,0,1,679.8,199.5Z" style="fill:#263238"></path><path d="M674.39,211.42h-.12a.49.49,0,0,1-.49-.51.51.51,0,0,1,.5-.49h.11a7.16,7.16,0,0,0,3.81-1.31.51.51,0,0,1,.7.1.5.5,0,0,1-.1.7A8.14,8.14,0,0,1,674.39,211.42Z" style="fill:#263238"></path><path d="M715.63,214.11c-1.83-12.57-3.12-21.32-6.82-26a13.23,13.23,0,0,0-7.67-5.94c-6.56-1.58-14.54-.19-14.54-.19s-4.59-5.17-10.35-1.28-3.65,9.48-1,11.19a36.09,36.09,0,0,0,6.26,3l.94-4.82s4.43,8.75,4.82,9.77L681,240.08s12.82-8.79,15.43-6.74,5.14,3.85,5.14,6-.36,18-.36,18H716S717.8,228.9,715.63,214.11Z" style="fill:#263238"></path><path d="M716,257.89H701.21a.48.48,0,0,1-.36-.15.43.43,0,0,1-.14-.36c0-.16.36-15.89.36-18,0-1.77-2.14-3.43-4.4-5.19l-.55-.43c-1.69-1.33-10,3.44-14.83,6.75a.5.5,0,0,1-.55,0,.49.49,0,0,1-.23-.5l6.22-40.09c-.43-1-2.58-5.28-4.1-8.3L682,195a.49.49,0,0,1-.24.34.51.51,0,0,1-.42,0,36,36,0,0,1-6.36-3.08,6.87,6.87,0,0,1-2.87-5.55c0-1.75.65-4.29,3.89-6.48,5.36-3.62,9.83.21,10.81,1.16,1.45-.23,8.48-1.2,14.48.25,3,.73,5.79,2.86,8,6.15,3.76,4.76,5.08,13.76,6.9,26.21,2.15,14.68.38,43.11.36,43.4A.49.49,0,0,1,716,257.89Zm-14.28-1h13.8c.22-3.76,1.6-29.18-.38-42.71-1.8-12.3-3.1-21.19-6.72-25.78-2.06-3.11-4.61-5.09-7.39-5.76-6.39-1.54-14.26-.2-14.34-.19a.49.49,0,0,1-.46-.16c-.18-.2-4.38-4.79-9.7-1.2-2.87,1.94-3.46,4.14-3.45,5.65a5.91,5.91,0,0,0,2.41,4.71,33.26,33.26,0,0,0,5.61,2.77l.83-4.24a.5.5,0,0,1,.93-.13c.19.36,4.45,8.79,4.85,9.82a.57.57,0,0,1,0,.26L681.67,239c3.45-2.29,12.59-8,15.07-6.07l.54.43c2.46,1.91,4.79,3.72,4.79,6C702.07,241.28,701.78,254.15,701.72,256.89Z" style="fill:#263238"></path><path d="M621,218.83a1,1,0,0,1,1.35-.65l6.38,2.84-6.83-6.45a1,1,0,0,1,1.27-1.65l7.44,4.64-4.31-5.29a1,1,0,0,1,1.41-1.39l8.58,7.26-.81-3.17a1.23,1.23,0,0,1,2.33-.76c.55,1.39,1.59,4,2,4.84a14.76,14.76,0,0,1,1.29,4.83c-.08,1-.08,3.26-.08,3.26l16.08,12.62,1.24-1.48,4.34,4.12-.13,1.61,3.94,3s26.48-13.44,29.93-13.68,8.23,5.83,6.16,11.88-37.09,15.61-38.24,15.69-26.41-29.42-26.41-29.42a55,55,0,0,1-6.17-2.74c-1.57-.93-7.95-3.47-10-4.28a.72.72,0,0,1,.44-1.37l5.29,1.26-6.13-4.5A1,1,0,0,1,621,218.83Z" style="fill:#263238"></path><path d="M664.38,261.41c-1,0-10-9.92-26.74-29.5a52.76,52.76,0,0,1-6.13-2.73c-1.54-.91-8-3.48-9.91-4.24a1.22,1.22,0,0,1,.73-2.32l2.9.68-4.14-3a1.46,1.46,0,0,1-.56-1.56h0a1.48,1.48,0,0,1,2-1l3.7,1.65-4.7-4.44a1.57,1.57,0,0,1-.2-2,1.55,1.55,0,0,1,2.09-.42l4.87,3-2.4-2.95A1.49,1.49,0,0,1,628,210.5l7.39,6.25L635,215.1a1.67,1.67,0,0,1,.24-1.39,1.7,1.7,0,0,1,1.19-.75,1.72,1.72,0,0,1,1.84,1.07c.46,1.15,1.58,3.93,2,4.8a15,15,0,0,1,1.33,5.08c-.05.77-.06,2.38-.07,3L657,239.06,658,238a.49.49,0,0,1,.35-.17.47.47,0,0,1,.38.13L663,242a.46.46,0,0,1,.15.4l-.1,1.34,3.48,2.66c3-1.52,26.48-13.36,29.83-13.6,1.64-.11,3.5,1,5,2.88a10.34,10.34,0,0,1,1.7,9.66c-2.26,6.61-38.33,16-38.67,16Zm-42.33-37.83a.22.22,0,0,0-.09.43c2.51,1,8.5,3.39,10.06,4.31a55.6,55.6,0,0,0,6.1,2.7.66.66,0,0,1,.2.14c9.62,11.23,24.35,28.11,26.1,29.24,2.6-.45,35.79-9.78,37.7-15.34a9.52,9.52,0,0,0-1.55-8.73c-1.25-1.63-2.85-2.58-4.11-2.49-2.74.19-22.39,9.9-29.73,13.63a.49.49,0,0,1-.53-.05l-3.94-3a.5.5,0,0,1-.2-.44l.11-1.37L658.39,239l-.9,1.07a.51.51,0,0,1-.69.07l-16.08-12.62a.49.49,0,0,1-.19-.39c0-.1,0-2.32.08-3.3a14.73,14.73,0,0,0-1.24-4.58c-.41-.86-1.44-3.42-2-4.86a.72.72,0,0,0-.77-.45.69.69,0,0,0-.5.32.71.71,0,0,0-.11.58l.81,3.17a.48.48,0,0,1-.22.54.5.5,0,0,1-.59,0l-8.57-7.25a.49.49,0,0,0-.81.27.53.53,0,0,0,.1.42l4.32,5.29a.5.5,0,0,1,0,.64.49.49,0,0,1-.64.1l-7.44-4.65a.55.55,0,0,0-.74.15.54.54,0,0,0,.07.71l6.83,6.46a.49.49,0,0,1,.07.64.5.5,0,0,1-.62.18l-6.37-2.85a.47.47,0,0,0-.41,0,.46.46,0,0,0-.25.31h0a.48.48,0,0,0,.18.51l6.13,4.5a.5.5,0,0,1-.41.89l-5.3-1.26Zm-1-4.75h0Z" style="fill:#263238"></path><rect x="491.96" y="185.46" width="170.59" height="255.97" rx="9.83" transform="translate(1154.5 626.88) rotate(180)" style="fill:#92E3A9"></rect><path d="M652.71,441.93H501.79a10.34,10.34,0,0,1-10.33-10.33V195.29A10.34,10.34,0,0,1,501.79,185H652.71A10.34,10.34,0,0,1,663,195.29V431.6A10.34,10.34,0,0,1,652.71,441.93ZM501.79,186a9.33,9.33,0,0,0-9.33,9.33V431.6a9.34,9.34,0,0,0,9.33,9.33H652.71A9.35,9.35,0,0,0,662,431.6V195.29a9.34,9.34,0,0,0-9.33-9.33Z" style="fill:#263238"></path><rect x="573" y="400.85" width="11.04" height="21.69" style="fill:#fff"></rect><path d="M584.05,423H573a.5.5,0,0,1-.5-.5V400.85a.5.5,0,0,1,.5-.5h11a.5.5,0,0,1,.5.5v21.69A.5.5,0,0,1,584.05,423Zm-10.55-1h10V401.35h-10Z" style="fill:#263238"></path><rect x="573" y="372.78" width="11.04" height="21.69" style="fill:#fff"></rect><path d="M584.05,395H573a.5.5,0,0,1-.5-.5V372.78a.5.5,0,0,1,.5-.5h11a.5.5,0,0,1,.5.5v21.69A.5.5,0,0,1,584.05,395Zm-10.55-1h10V373.28h-10Z" style="fill:#263238"></path><rect x="573" y="344.7" width="11.04" height="21.69" style="fill:#fff"></rect><path d="M584.05,366.9H573a.51.51,0,0,1-.5-.5V344.7a.51.51,0,0,1,.5-.5h11a.51.51,0,0,1,.5.5v21.7A.51.51,0,0,1,584.05,366.9Zm-10.55-1h10V345.2h-10Z" style="fill:#263238"></path><rect x="573" y="316.63" width="11.04" height="21.69" style="fill:#fff"></rect><path d="M584.05,338.83H573a.51.51,0,0,1-.5-.5v-21.7a.51.51,0,0,1,.5-.5h11a.51.51,0,0,1,.5.5v21.7A.51.51,0,0,1,584.05,338.83Zm-10.55-1h10v-20.7h-10Z" style="fill:#263238"></path><rect x="573" y="288.56" width="11.04" height="21.69" style="fill:#fff"></rect><path d="M584.05,310.75H573a.5.5,0,0,1-.5-.5V288.56a.5.5,0,0,1,.5-.5h11a.5.5,0,0,1,.5.5v21.69A.5.5,0,0,1,584.05,310.75Zm-10.55-1h10V289.06h-10Z" style="fill:#263238"></path><rect x="573" y="260.49" width="11.04" height="21.69" style="fill:#fff"></rect><path d="M584.05,282.68H573a.5.5,0,0,1-.5-.5V260.49a.5.5,0,0,1,.5-.5h11a.5.5,0,0,1,.5.5v21.69A.5.5,0,0,1,584.05,282.68Zm-10.55-1h10V261h-10Z" style="fill:#263238"></path><rect x="573" y="232.41" width="11.04" height="21.69" style="fill:#fff"></rect><path d="M584.05,254.61H573a.51.51,0,0,1-.5-.5v-21.7a.51.51,0,0,1,.5-.5h11a.51.51,0,0,1,.5.5v21.7A.51.51,0,0,1,584.05,254.61Zm-10.55-1h10v-20.7h-10Z" style="fill:#263238"></path><rect x="573" y="204.34" width="11.04" height="21.69" style="fill:#fff"></rect><path d="M584.05,226.53H573a.5.5,0,0,1-.5-.5V204.34a.5.5,0,0,1,.5-.5h11a.5.5,0,0,1,.5.5V226A.5.5,0,0,1,584.05,226.53Zm-10.55-1h10V204.84h-10Z" style="fill:#263238"></path><circle cx="632.98" cy="217.07" r="11.96" transform="translate(-34.89 258.76) rotate(-22.5)" style="fill:#fff"></circle><path d="M633,229.54a12.47,12.47,0,1,1,12.46-12.47A12.48,12.48,0,0,1,633,229.54Zm0-23.93a11.47,11.47,0,1,0,11.46,11.46A11.47,11.47,0,0,0,633,205.61Z" style="fill:#263238"></path><circle cx="632.98" cy="242.54" r="11.96" transform="translate(-44.63 260.69) rotate(-22.5)" style="fill:#fff"></circle><path d="M633,255a12.46,12.46,0,1,1,12.46-12.46A12.47,12.47,0,0,1,633,255Zm0-23.92a11.46,11.46,0,1,0,11.46,11.46A11.47,11.47,0,0,0,633,231.08Z" style="fill:#263238"></path><circle cx="632.98" cy="268.42" r="11.96" transform="translate(-21.9 59.03) rotate(-5.25)" style="fill:#fff"></circle><path d="M633,280.88a12.46,12.46,0,1,1,12.46-12.46A12.47,12.47,0,0,1,633,280.88ZM633,257a11.46,11.46,0,1,0,11.46,11.46A11.47,11.47,0,0,0,633,257Z" style="fill:#263238"></path><path d="M501.79,185.46a9.83,9.83,0,0,0-9.83,9.83V431.6a9.83,9.83,0,0,0,9.83,9.83h35.88V384.54l-35.49-45.92V185.46Z" style="fill:#263238"></path><path d="M537.67,441.93H501.79a10.34,10.34,0,0,1-10.33-10.33V195.29A10.34,10.34,0,0,1,501.79,185h.39a.5.5,0,0,1,.5.5v153l35.39,45.78a.48.48,0,0,1,.1.31v56.89A.5.5,0,0,1,537.67,441.93Zm-36-256a9.34,9.34,0,0,0-9.22,9.33V431.6a9.34,9.34,0,0,0,9.33,9.33h35.38V384.71l-35.39-45.79a.45.45,0,0,1-.1-.3Z" style="fill:#263238"></path><path d="M627.58,403.8a.5.5,0,0,1-.5-.5V290a.5.5,0,0,1,1,0V403.3A.5.5,0,0,1,627.58,403.8Z" style="fill:#263238"></path><path d="M627.58,423.24a.5.5,0,0,1-.5-.5V413a.5.5,0,1,1,1,0v9.76A.5.5,0,0,1,627.58,423.24Z" style="fill:#263238"></path><path d="M638.77,302.92a.5.5,0,0,1-.5-.5V290a.5.5,0,0,1,1,0v12.42A.5.5,0,0,1,638.77,302.92Z" style="fill:#263238"></path><path d="M638.77,423.24a.5.5,0,0,1-.5-.5V312.91a.5.5,0,0,1,1,0V422.74A.5.5,0,0,1,638.77,423.24Z" style="fill:#263238"></path><rect x="508.6" y="380.16" width="49" height="35.11" rx="4.55" transform="translate(135.38 930.81) rotate(-90)" style="fill:#fff"></rect><path d="M546.1,422.72h-26a5.07,5.07,0,0,1-5.06-5.06V377.77a5.07,5.07,0,0,1,5.06-5.06h26a5.06,5.06,0,0,1,5,5.06v39.89A5.06,5.06,0,0,1,546.1,422.72Zm-26-49a4.06,4.06,0,0,0-4.06,4.06v39.89a4.06,4.06,0,0,0,4.06,4.06h26a4.05,4.05,0,0,0,4-4.06V377.77a4.05,4.05,0,0,0-4-4.06Z" style="fill:#263238"></path><rect x="528.6" y="393.22" width="9" height="9" transform="translate(135.38 930.81) rotate(-90)" style="fill:#fff"></rect><path d="M537.6,402.71h-9a.5.5,0,0,1-.5-.5v-9a.5.5,0,0,1,.5-.5h9a.5.5,0,0,1,.5.5v9A.5.5,0,0,1,537.6,402.71Zm-8.5-1h8v-8h-8Z" style="fill:#263238"></path><path d="M527.65,422.17a.5.5,0,0,1-.5-.5v-5.84a.5.5,0,0,1,.5-.5h2.69V402.47a.5.5,0,0,1,.5-.5.5.5,0,0,1,.5.5v13.36a.5.5,0,0,1-.5.5h-2.69v5.34A.51.51,0,0,1,527.65,422.17Z" style="fill:#263238"></path><path d="M538.73,422.17a.5.5,0,0,1-.5-.5V416h-2.7a.5.5,0,0,1-.5-.5v-13a.5.5,0,0,1,.5-.5.5.5,0,0,1,.5.5V415h2.7a.5.5,0,0,1,.5.5v6.2A.51.51,0,0,1,538.73,422.17Z" style="fill:#263238"></path><path d="M533.1,422.37a.5.5,0,0,1-.5-.5V402.8a.5.5,0,0,1,.5-.5.51.51,0,0,1,.5.5v19.07A.5.5,0,0,1,533.1,422.37Z" style="fill:#263238"></path><path d="M530.84,393.6a.5.5,0,0,1-.5-.5V380.24h-2.69a.5.5,0,0,1-.5-.5v-5.83a.5.5,0,0,1,.5-.5.5.5,0,0,1,.5.5v5.33h2.69a.5.5,0,0,1,.5.5V393.1A.5.5,0,0,1,530.84,393.6Z" style="fill:#263238"></path><path d="M535.53,393.6a.5.5,0,0,1-.5-.5v-13a.5.5,0,0,1,.5-.5h2.7v-5.7a.5.5,0,0,1,.5-.5.5.5,0,0,1,.5.5v6.2a.51.51,0,0,1-.5.5H536V393.1A.5.5,0,0,1,535.53,393.6Z" style="fill:#263238"></path><path d="M533.1,393.27a.5.5,0,0,1-.5-.5V373.7a.5.5,0,0,1,.5-.5.51.51,0,0,1,.5.5v19.07A.5.5,0,0,1,533.1,393.27Z" style="fill:#263238"></path><path d="M528.68,398.22H516.2a.5.5,0,0,1-.5-.5.5.5,0,0,1,.5-.5h12.48a.5.5,0,0,1,.5.5A.5.5,0,0,1,528.68,398.22Z" style="fill:#263238"></path><path d="M549.87,398.22H537.71a.51.51,0,0,1-.5-.5.5.5,0,0,1,.5-.5h12.16a.5.5,0,0,1,.5.5A.51.51,0,0,1,549.87,398.22Z" style="fill:#263238"></path><path d="M666,249.94s25.45-15.66,28.87-16.15,8.63,5.22,7,11.41S666,263.78,664.82,264s-28.89-26.86-28.89-26.86a54.93,54.93,0,0,1-6.36-2.28c-1.63-.82-8.18-2.89-10.27-3.55a.72.72,0,0,1-.48-.86h0a.73.73,0,0,1,.82-.53l5.37.87-6.44-4.05a1,1,0,0,1-.44-1h0a1,1,0,0,1,1.29-.75l6.57,2.38-7.28-5.95a1.06,1.06,0,0,1-.24-1.35h0a1.06,1.06,0,0,1,1.39-.38l7.76,4.09-4.69-5a1,1,0,0,1,.21-1.54h0a1,1,0,0,1,1.1.05l9.08,6.62-1-3.1a1.23,1.23,0,0,1,.9-1.59h0a1.22,1.22,0,0,1,1.36.66c.65,1.34,1.88,3.86,2.35,4.68a14.6,14.6,0,0,1,1.63,4.72c0,1,.17,3.26.17,3.26Z" style="fill:#fff"></path><path d="M664.87,264.44c-1,0-10.86-9.05-29.2-26.91a53,53,0,0,1-6.32-2.27c-1.61-.81-8.21-2.9-10.2-3.52a1.22,1.22,0,0,1,.57-2.37l2.94.48-4.36-2.74a1.47,1.47,0,0,1,.05-2.53,1.46,1.46,0,0,1,1.24-.11l3.81,1.38-5-4.09a1.55,1.55,0,0,1,1.71-2.57l5.08,2.69-2.61-2.77a1.47,1.47,0,0,1-.4-1.23,1.54,1.54,0,0,1,.72-1.08,1.48,1.48,0,0,1,1.65.08l7.81,5.69-.54-1.61a1.78,1.78,0,0,1,.14-1.41,1.73,1.73,0,0,1,3,.1c.54,1.12,1.86,3.81,2.34,4.65a15,15,0,0,1,1.69,5c0,.76.1,2.36.15,3L666,249.35c2.88-1.77,25.46-15.57,28.8-16,1.62-.23,3.55.71,5.16,2.51a10.35,10.35,0,0,1,2.39,9.52c-1.76,6.69-37.08,19.06-37.42,19.11Zm-45.35-34.08a.21.21,0,0,0-.21.16.22.22,0,0,0,.14.27c2.57.8,8.72,2.76,10.35,3.57a53.25,53.25,0,0,0,6.27,2.25.45.45,0,0,1,.2.12c10.58,10.3,26.74,25.74,28.57,26.7,2.55-.65,35-12.78,36.51-18.36a9.5,9.5,0,0,0-2.18-8.59c-1.36-1.54-3-2.38-4.27-2.19-2.73.39-21.63,11.73-28.68,16.07a.51.51,0,0,1-.53,0L638.43,233a.48.48,0,0,1-.23-.39c0-.09-.17-2.31-.17-3.29a14.43,14.43,0,0,0-1.56-4.47c-.48-.84-1.69-3.31-2.37-4.71a.71.71,0,0,0-.8-.39.69.69,0,0,0-.48.35.76.76,0,0,0-.06.59l1,3.1a.5.5,0,0,1-.77.56L624,217.68a.52.52,0,0,0-.55,0,.5.5,0,0,0-.24.36.51.51,0,0,0,.13.41l4.69,5a.51.51,0,0,1,0,.65.51.51,0,0,1-.64.13l-7.75-4.09a.55.55,0,0,0-.73.2.56.56,0,0,0,.13.71l7.28,5.94a.5.5,0,0,1-.49.86l-6.57-2.38a.46.46,0,0,0-.4,0,.46.46,0,0,0-.23.33.47.47,0,0,0,.22.49l6.44,4a.51.51,0,0,1,.2.6.49.49,0,0,1-.55.32l-5.37-.87Z" style="fill:#263238"></path><path d="M651.53,252l.32-.54,5.11-7.05,9,5.49s25.45-15.66,28.87-16.15,8.63,5.22,7,11.41S666,263.78,664.82,264C664.27,264,660.15,259.91,651.53,252Z" style="fill:#92E3A9"></path><path d="M664.8,264.45c-.56,0-1.46-.81-6.55-5.53-1.89-1.75-4.23-3.93-7.06-6.51a.51.51,0,0,1-.09-.63l.32-.53,5.14-7.09a.5.5,0,0,1,.66-.14l8.74,5.33c2.85-1.75,25.46-15.57,28.8-16,1.62-.23,3.55.71,5.16,2.51a10.35,10.35,0,0,1,2.39,9.52c-1.76,6.69-37.08,19.06-37.42,19.11Zm.09-1ZM652.17,252q4,3.69,6.76,6.24a72.07,72.07,0,0,0,5.9,5.24c2.45-.61,35-12.77,36.52-18.36a9.5,9.5,0,0,0-2.18-8.59c-1.36-1.54-3-2.38-4.27-2.19-2.73.39-21.63,11.73-28.68,16.07a.49.49,0,0,1-.52,0l-8.6-5.24Z" style="fill:#263238"></path><polygon points="660.09 246.3 652.93 254.97 648.82 251.72 655.97 242.84 660.09 246.3" style="fill:#92E3A9"></polygon><path d="M652.93,255.47a.5.5,0,0,1-.31-.1l-4.11-3.26a.45.45,0,0,1-.19-.33.49.49,0,0,1,.1-.37l7.16-8.89a.5.5,0,0,1,.34-.18.54.54,0,0,1,.37.11l4.12,3.47a.49.49,0,0,1,.06.7l-7.15,8.67A.5.5,0,0,1,652.93,255.47Zm-3.41-3.83,3.34,2.64,6.52-7.91L656,243.55Z" style="fill:#263238"></path></g><g id="freepik--Awning--inject-2"><path d="M584,77.92H131.58V127.3a17.49,17.49,0,0,0,17.49,17.48h0a17.49,17.49,0,0,0,17.39-15.68,17.49,17.49,0,0,0,17.39,15.68h0a17.5,17.5,0,0,0,17.4-15.68,17.48,17.48,0,0,0,34.78,0,17.5,17.5,0,0,0,17.4,15.68h0a17.48,17.48,0,0,0,17.39-15.68,17.5,17.5,0,0,0,17.4,15.68h0a17.49,17.49,0,0,0,17.39-15.68,17.49,17.49,0,0,0,34.79,0,17.48,17.48,0,0,0,17.39,15.68h0a17.5,17.5,0,0,0,17.4-15.68,17.48,17.48,0,0,0,34.78,0,17.49,17.49,0,0,0,34.79,0,17.49,17.49,0,0,0,17.39,15.68h0a17.5,17.5,0,0,0,17.4-15.68,17.49,17.49,0,0,0,34.79,0,17.48,17.48,0,0,0,17.39,15.68h0a17.48,17.48,0,0,0,17.39-15.68,17.5,17.5,0,0,0,17.4,15.68h0a17.48,17.48,0,0,0,17.39-15.68,17.49,17.49,0,0,0,34.88-1.8V77.92Z" style="fill:#263238"></path><path d="M601.31,145.28a17.93,17.93,0,0,1-17.4-13.38,18,18,0,0,1-34.79,0,18,18,0,0,1-34.78,0,18,18,0,0,1-34.79,0,18,18,0,0,1-34.79,0,18,18,0,0,1-34.79,0,18,18,0,0,1-34.78,0,18,18,0,0,1-34.79,0,18,18,0,0,1-34.79,0,18,18,0,0,1-34.79,0,18,18,0,0,1-34.79,0,18,18,0,0,1-34.78,0,18,18,0,0,1-34.79,0,18,18,0,0,1-35.38-4.6V77.92a.5.5,0,0,1,.5-.5H618.79a.5.5,0,0,1,.5.5V127.3A18,18,0,0,1,601.31,145.28Zm-17.4-16.68a.51.51,0,0,1,.5.45,17,17,0,0,0,33.88-1.75V78.42H132.08V127.3A17,17,0,0,0,166,129.05a.5.5,0,0,1,1,0,17,17,0,0,0,33.79,0,.51.51,0,0,1,.5-.45.5.5,0,0,1,.49.45,17,17,0,0,0,33.8,0,.5.5,0,0,1,1,0,17,17,0,0,0,33.79,0,.52.52,0,0,1,.5-.45.51.51,0,0,1,.5.45,17,17,0,0,0,33.79,0,.5.5,0,0,1,1,0,17,17,0,0,0,33.79,0,.51.51,0,0,1,.5-.45.52.52,0,0,1,.5.45,17,17,0,0,0,33.79,0,.5.5,0,0,1,1,0,17,17,0,0,0,33.8,0,.5.5,0,0,1,.49-.45.51.51,0,0,1,.5.45,17,17,0,0,0,33.79,0,.5.5,0,0,1,1,0,17,17,0,0,0,33.79,0,.5.5,0,0,1,1,0,17,17,0,0,0,33.79,0,.5.5,0,0,1,1,0,17,17,0,0,0,33.8,0,.5.5,0,0,1,1,0,17,17,0,0,0,33.79,0A.51.51,0,0,1,583.91,128.6Z" style="fill:#263238"></path><rect x="131.58" y="68.98" width="34.97" height="33.52" style="fill:#92E3A9"></rect><path d="M166.55,103h-35a.5.5,0,0,1-.5-.5V69a.5.5,0,0,1,.5-.5h35a.5.5,0,0,1,.5.5V102.5A.5.5,0,0,1,166.55,103Zm-34.47-1h34V69.48h-34Z" style="fill:#263238"></path><rect x="166.37" y="68.98" width="34.97" height="33.52" style="fill:#e5e5e5"></rect><path d="M201.34,103h-35a.5.5,0,0,1-.5-.5V69a.5.5,0,0,1,.5-.5h35a.5.5,0,0,1,.5.5V102.5A.5.5,0,0,1,201.34,103Zm-34.47-1h34V69.48h-34Z" style="fill:#263238"></path><rect x="201.15" y="68.98" width="34.97" height="33.52" style="fill:#92E3A9"></rect><path d="M236.13,103h-35a.51.51,0,0,1-.5-.5V69a.5.5,0,0,1,.5-.5h35a.5.5,0,0,1,.5.5V102.5A.51.51,0,0,1,236.13,103Zm-34.48-1h34V69.48h-34Z" style="fill:#263238"></path><rect x="235.94" y="68.98" width="34.97" height="33.52" style="fill:#e5e5e5"></rect><path d="M270.92,103h-35a.51.51,0,0,1-.5-.5V69a.5.5,0,0,1,.5-.5h35a.5.5,0,0,1,.5.5V102.5A.51.51,0,0,1,270.92,103Zm-34.48-1h34V69.48h-34Z" style="fill:#263238"></path><rect x="270.73" y="68.98" width="34.97" height="33.52" style="fill:#92E3A9"></rect><path d="M305.7,103h-35a.5.5,0,0,1-.5-.5V69a.5.5,0,0,1,.5-.5h35a.5.5,0,0,1,.5.5V102.5A.5.5,0,0,1,305.7,103Zm-34.47-1h34V69.48h-34Z" style="fill:#263238"></path><rect x="305.52" y="68.98" width="34.97" height="33.52" style="fill:#e5e5e5"></rect><path d="M340.49,103h-35a.5.5,0,0,1-.5-.5V69a.5.5,0,0,1,.5-.5h35a.5.5,0,0,1,.5.5V102.5A.5.5,0,0,1,340.49,103ZM306,102h34V69.48H306Z" style="fill:#263238"></path><rect x="340.3" y="68.98" width="34.97" height="33.52" style="fill:#92E3A9"></rect><path d="M375.28,103h-35a.51.51,0,0,1-.5-.5V69a.5.5,0,0,1,.5-.5h35a.5.5,0,0,1,.5.5V102.5A.51.51,0,0,1,375.28,103Zm-34.48-1h34V69.48h-34Z" style="fill:#263238"></path><rect x="375.09" y="68.98" width="34.97" height="33.52" style="fill:#e5e5e5"></rect><path d="M410.07,103h-35a.51.51,0,0,1-.5-.5V69a.5.5,0,0,1,.5-.5h35a.5.5,0,0,1,.5.5V102.5A.51.51,0,0,1,410.07,103Zm-34.48-1h34V69.48h-34Z" style="fill:#263238"></path><rect x="409.88" y="68.98" width="34.97" height="33.52" style="fill:#92E3A9"></rect><path d="M444.85,103h-35a.5.5,0,0,1-.5-.5V69a.5.5,0,0,1,.5-.5h35a.5.5,0,0,1,.5.5V102.5A.5.5,0,0,1,444.85,103Zm-34.47-1h34V69.48h-34Z" style="fill:#263238"></path><rect x="444.67" y="68.98" width="34.97" height="33.52" style="fill:#e5e5e5"></rect><path d="M479.64,103h-35a.5.5,0,0,1-.5-.5V69a.5.5,0,0,1,.5-.5h35a.5.5,0,0,1,.5.5V102.5A.5.5,0,0,1,479.64,103Zm-34.47-1h34V69.48h-34Z" style="fill:#263238"></path><rect x="479.46" y="68.98" width="34.97" height="33.52" style="fill:#92E3A9"></rect><path d="M514.43,103h-35a.5.5,0,0,1-.5-.5V69a.5.5,0,0,1,.5-.5h35a.5.5,0,0,1,.5.5V102.5A.5.5,0,0,1,514.43,103ZM480,102h34V69.48H480Z" style="fill:#263238"></path><rect x="514.24" y="68.98" width="34.97" height="33.52" style="fill:#e5e5e5"></rect><path d="M549.22,103h-35a.51.51,0,0,1-.5-.5V69a.5.5,0,0,1,.5-.5h35a.5.5,0,0,1,.5.5V102.5A.51.51,0,0,1,549.22,103Zm-34.48-1h34V69.48h-34Z" style="fill:#263238"></path><rect x="549.03" y="68.98" width="34.97" height="33.52" style="fill:#92E3A9"></rect><path d="M584,103H549a.5.5,0,0,1-.5-.5V69a.5.5,0,0,1,.5-.5h35a.5.5,0,0,1,.5.5V102.5A.51.51,0,0,1,584,103Zm-34.48-1h34V69.48h-34Z" style="fill:#263238"></path><rect x="583.82" y="68.98" width="34.97" height="33.52" style="fill:#e5e5e5"></rect><path d="M618.79,103h-35a.5.5,0,0,1-.5-.5V69a.5.5,0,0,1,.5-.5h35a.5.5,0,0,1,.5.5V102.5A.5.5,0,0,1,618.79,103Zm-34.47-1h34V69.48h-34Z" style="fill:#263238"></path><path d="M149.07,135.84h0a17.49,17.49,0,0,1-17.49-17.49v-16h35v16A17.49,17.49,0,0,1,149.07,135.84Z" style="fill:#92E3A9"></path><path d="M149.07,136.34a18,18,0,0,1-18-18v-16a.5.5,0,0,1,.5-.5h35a.5.5,0,0,1,.5.5v16A18,18,0,0,1,149.07,136.34Zm-17-33.52v15.53a17,17,0,1,0,34,0V102.82Z" style="fill:#263238"></path><path d="M166.37,102.32h35a0,0,0,0,1,0,0v16a17.49,17.49,0,0,1-17.49,17.49h0a17.49,17.49,0,0,1-17.49-17.49v-16A0,0,0,0,1,166.37,102.32Z" style="fill:#fff"></path><path d="M183.85,136.34a18,18,0,0,1-18-18v-16a.5.5,0,0,1,.5-.5h35a.5.5,0,0,1,.5.5v16A18,18,0,0,1,183.85,136.34Zm-17-33.52v15.53a17,17,0,1,0,34,0V102.82Z" style="fill:#263238"></path><path d="M218.64,135.84h0a17.49,17.49,0,0,1-17.49-17.49v-16h35v16A17.49,17.49,0,0,1,218.64,135.84Z" style="fill:#92E3A9"></path><path d="M218.64,136.34a18,18,0,0,1-18-18v-16a.5.5,0,0,1,.5-.5h35a.5.5,0,0,1,.5.5v16A18,18,0,0,1,218.64,136.34Zm-17-33.52v15.53a17,17,0,0,0,34,0V102.82Z" style="fill:#263238"></path><path d="M235.94,102.32h35a0,0,0,0,1,0,0v16a17.49,17.49,0,0,1-17.49,17.49h0a17.49,17.49,0,0,1-17.49-17.49v-16A0,0,0,0,1,235.94,102.32Z" style="fill:#fff"></path><path d="M253.43,136.34a18,18,0,0,1-18-18v-16a.5.5,0,0,1,.5-.5h35a.5.5,0,0,1,.5.5v16A18,18,0,0,1,253.43,136.34Zm-17-33.52v15.53a17,17,0,0,0,34,0V102.82Z" style="fill:#263238"></path><path d="M270.73,102.32h35a0,0,0,0,1,0,0v16a17.49,17.49,0,0,1-17.49,17.49h0a17.49,17.49,0,0,1-17.49-17.49v-16a0,0,0,0,1,0,0Z" style="fill:#92E3A9"></path><path d="M288.22,136.34a18,18,0,0,1-18-18v-16a.5.5,0,0,1,.5-.5h35a.5.5,0,0,1,.5.5v16A18,18,0,0,1,288.22,136.34Zm-17-33.52v15.53a17,17,0,0,0,17,17h0a17,17,0,0,0,17-17V102.82Z" style="fill:#263238"></path><path d="M323,135.84h0a17.49,17.49,0,0,1-17.48-17.49v-16h35v16A17.49,17.49,0,0,1,323,135.84Z" style="fill:#fff"></path><path d="M323,136.34a18,18,0,0,1-18-18v-16a.5.5,0,0,1,.5-.5h35a.5.5,0,0,1,.5.5v16A18,18,0,0,1,323,136.34Zm-17-33.52v15.53a17,17,0,1,0,34,0V102.82Z" style="fill:#263238"></path><path d="M357.79,135.84h0a17.49,17.49,0,0,1-17.49-17.49v-16h35v16A17.49,17.49,0,0,1,357.79,135.84Z" style="fill:#92E3A9"></path><path d="M357.79,136.34a18,18,0,0,1-18-18v-16a.5.5,0,0,1,.5-.5h35a.5.5,0,0,1,.5.5v16A18,18,0,0,1,357.79,136.34Zm-17-33.52v15.53a17,17,0,1,0,34,0V102.82Z" style="fill:#263238"></path><path d="M392.58,135.84h0a17.49,17.49,0,0,1-17.49-17.49v-16h35v16A17.49,17.49,0,0,1,392.58,135.84Z" style="fill:#fff"></path><path d="M392.58,136.34a18,18,0,0,1-18-18v-16a.5.5,0,0,1,.5-.5h35a.5.5,0,0,1,.5.5v16A18,18,0,0,1,392.58,136.34Zm-17-33.52v15.53a17,17,0,0,0,34,0V102.82Z" style="fill:#263238"></path><path d="M427.37,135.84h0a17.49,17.49,0,0,1-17.49-17.49v-16h35v16A17.49,17.49,0,0,1,427.37,135.84Z" style="fill:#92E3A9"></path><path d="M427.37,136.34a18,18,0,0,1-18-18v-16a.5.5,0,0,1,.5-.5h35a.5.5,0,0,1,.5.5v16A18,18,0,0,1,427.37,136.34Zm-17-33.52v15.53a17,17,0,1,0,34,0V102.82Z" style="fill:#263238"></path><path d="M444.67,102.32h35a0,0,0,0,1,0,0v16a17.49,17.49,0,0,1-17.49,17.49h0a17.49,17.49,0,0,1-17.49-17.49v-16A0,0,0,0,1,444.67,102.32Z" style="fill:#fff"></path><path d="M462.15,136.34a18,18,0,0,1-18-18v-16a.5.5,0,0,1,.5-.5h35a.5.5,0,0,1,.5.5v16A18,18,0,0,1,462.15,136.34Zm-17-33.52v15.53a17,17,0,1,0,34,0V102.82Z" style="fill:#263238"></path><path d="M479.46,102.32h35a0,0,0,0,1,0,0v16a17.49,17.49,0,0,1-17.49,17.49h0a17.49,17.49,0,0,1-17.49-17.49v-16A0,0,0,0,1,479.46,102.32Z" style="fill:#92E3A9"></path><path d="M496.94,136.34a18,18,0,0,1-18-18v-16a.5.5,0,0,1,.5-.5h35a.5.5,0,0,1,.5.5v16A18,18,0,0,1,496.94,136.34Zm-17-33.52v15.53a17,17,0,1,0,34,0V102.82Z" style="fill:#263238"></path><path d="M531.73,135.84h0a17.49,17.49,0,0,1-17.49-17.49v-16h35v16A17.49,17.49,0,0,1,531.73,135.84Z" style="fill:#fff"></path><path d="M531.73,136.34a18,18,0,0,1-18-18v-16a.5.5,0,0,1,.5-.5h35a.5.5,0,0,1,.5.5v16A18,18,0,0,1,531.73,136.34Zm-17-33.52v15.53a17,17,0,1,0,34,0V102.82Z" style="fill:#263238"></path><path d="M566.52,135.84h0A17.49,17.49,0,0,1,549,118.35v-16h35v16A17.48,17.48,0,0,1,566.52,135.84Z" style="fill:#92E3A9"></path><path d="M566.52,136.34a18,18,0,0,1-18-18v-16a.5.5,0,0,1,.5-.5h35a.5.5,0,0,1,.5.5v16A18,18,0,0,1,566.52,136.34Zm-17-33.52v15.53a17,17,0,1,0,34,0V102.82Z" style="fill:#263238"></path><path d="M601.31,135.84h0a17.49,17.49,0,0,1-17.49-17.49v-16h35v16A17.49,17.49,0,0,1,601.31,135.84Z" style="fill:#fff"></path><path d="M601.31,136.34a18,18,0,0,1-18-18v-16a.5.5,0,0,1,.5-.5h35a.5.5,0,0,1,.5.5v16A18,18,0,0,1,601.31,136.34Zm-17-33.52v15.53a17,17,0,1,0,34,0V102.82Z" style="fill:#263238"></path></g><g id="freepik--wifi-icon--inject-2"><circle cx="124.42" cy="200.28" r="42.38" transform="translate(-42.69 33.94) rotate(-13.28)" style="fill:#263238"></circle><path d="M124.42,243.16a42.88,42.88,0,1,1,42.88-42.88A42.93,42.93,0,0,1,124.42,243.16Zm0-84.76a41.88,41.88,0,1,0,41.88,41.88A41.92,41.92,0,0,0,124.42,158.4Z" style="fill:#263238"></path><circle cx="122.15" cy="196.9" r="42.38" style="fill:#92E3A9"></circle><path d="M122.15,239.78A42.89,42.89,0,1,1,165,196.9,42.93,42.93,0,0,1,122.15,239.78Zm0-84.77A41.89,41.89,0,1,0,164,196.9,41.93,41.93,0,0,0,122.15,155Z" style="fill:#263238"></path><path d="M122.2,182.69A30.48,30.48,0,0,0,106.43,187a59.77,59.77,0,0,0-5.64,4.16,3.69,3.69,0,0,1-3.51.85,3.21,3.21,0,0,1-1.81-4.72,7.2,7.2,0,0,1,1.4-1.57,37.26,37.26,0,0,1,21.39-9.48c11.19-1.12,20.91,2.29,29.35,9.6a4.08,4.08,0,0,1,1.68,2.76,3.26,3.26,0,0,1-5.19,3c-.66-.46-1.23-1-1.86-1.55a31.14,31.14,0,0,0-19.2-7.3Z" style="fill:#263238"></path><path d="M138.69,200.53a3.63,3.63,0,0,1-2.58-1.1,20,20,0,0,0-26.75-.94c-.56.46-1.1,1-1.69,1.39a3.29,3.29,0,0,1-4.45-.48,3.24,3.24,0,0,1,.11-4.4,24.58,24.58,0,0,1,9.5-6.14,26.24,26.24,0,0,1,20.72.85,25.3,25.3,0,0,1,7.4,5.17,3.26,3.26,0,0,1,.7,3.7A3.12,3.12,0,0,1,138.69,200.53Z" style="fill:#263238"></path><path d="M122.08,198.24a15.62,15.62,0,0,1,11.5,5,3.3,3.3,0,0,1,.13,4.52,3.36,3.36,0,0,1-4.63.29,17.44,17.44,0,0,0-3.66-2.47c-3.48-1.42-6.67-.63-9.44,1.86a3.9,3.9,0,0,1-3.44,1.33,3.22,3.22,0,0,1-2-5.18,13.64,13.64,0,0,1,5.61-4.1A15.75,15.75,0,0,1,122.08,198.24Z" style="fill:#263238"></path><path d="M122.22,217.75a3.93,3.93,0,0,1-4-4,4,4,0,0,1,3.94-4,4,4,0,1,1,.09,8Z" style="fill:#263238"></path></g><g id="freepik--Button--inject-2"><rect x="314.5" y="251.64" width="121" height="46.87" rx="9.27" style="fill:#263238"></rect><path d="M348.37,288.6V261.18h6.94a17.22,17.22,0,0,1,3.32.3,7.51,7.51,0,0,1,2.69,1.09,5,5,0,0,1,1.8,2.15,8.77,8.77,0,0,1,.62,3.57,7.6,7.6,0,0,1-.47,2.82,4.33,4.33,0,0,1-1.36,1.85,4.82,4.82,0,0,1-2.16.91,5.54,5.54,0,0,1,2.67,1.09,5.15,5.15,0,0,1,1.63,2.23,9.26,9.26,0,0,1,.54,3.35,11,11,0,0,1-.53,3.59,6.24,6.24,0,0,1-1.54,2.51,6.48,6.48,0,0,1-2.5,1.47,11,11,0,0,1-3.45.49ZM354,272.25h1.39a4.59,4.59,0,0,0,2.2-.42,2.3,2.3,0,0,0,1-1.29,6.83,6.83,0,0,0,.29-2.12,4.05,4.05,0,0,0-.43-2,2.4,2.4,0,0,0-1.28-1.1A6,6,0,0,0,355,265h-1Zm0,12.42h1.56a3.43,3.43,0,0,0,2.89-1.05,5.13,5.13,0,0,0,.8-3.14,7.27,7.27,0,0,0-.38-2.59,2.67,2.67,0,0,0-1.2-1.43,4.65,4.65,0,0,0-2.22-.45H354Z" style="fill:#92E3A9"></path><path d="M375.52,289a9.24,9.24,0,0,1-4.84-1.06,5.71,5.71,0,0,1-2.42-3.08,15.27,15.27,0,0,1-.69-4.9V261.18h5.52v19.53a13.17,13.17,0,0,0,.15,2,3.05,3.05,0,0,0,.68,1.59,2,2,0,0,0,1.6.61,2.05,2.05,0,0,0,1.65-.61,3,3,0,0,0,.66-1.59,14.61,14.61,0,0,0,.13-2V261.18h5.52v18.75a15.27,15.27,0,0,1-.69,4.9,5.71,5.71,0,0,1-2.42,3.08A9.26,9.26,0,0,1,375.52,289Z" style="fill:#92E3A9"></path><path d="M391,288.6V277.73l-5.35-16.55h5.25l2.95,9.65,2.74-9.65h5.08l-5.28,16.55V288.6Z" style="fill:#92E3A9"></path></g><g id="freepik--Cursor--inject-2"><path d="M272.69,328,325,283.73a2.35,2.35,0,0,0-1.75-4.13l-68,6.72a2.35,2.35,0,0,0-1,4.37l14.1,8.25L223,318.16l4.58,10.8,44.92-19-3.6,15.79A2.35,2.35,0,0,0,272.69,328Z" style="fill:#263238"></path><path d="M273.44,323.52l52.28-44.3a2.35,2.35,0,0,0-1.75-4.13l-68,6.72a2.35,2.35,0,0,0-1,4.36l14.1,8.26-45.37,19.22,4.58,10.8,44.92-19-3.6,15.78A2.35,2.35,0,0,0,273.44,323.52Z" style="fill:#fff"></path><path d="M228.31,325a.43.43,0,0,1-.19,0,.48.48,0,0,1-.27-.27l-4.58-10.8a.5.5,0,0,1,0-.38.51.51,0,0,1,.27-.27L268,294.36l-13.24-7.76a2.85,2.85,0,0,1,1.16-5.29l68-6.72a2.85,2.85,0,0,1,2.13,5l-52.29,44.3h0a2.8,2.8,0,0,1-3.32.26,2.83,2.83,0,0,1-1.3-3.07l3.39-14.83-44,18.65A.41.41,0,0,1,228.31,325Zm-3.92-11,4.18,9.88L273,305a.47.47,0,0,1,.51.07.51.51,0,0,1,.17.5l-3.6,15.79a1.85,1.85,0,0,0,3,1.82l52.28-44.3a1.85,1.85,0,0,0-1.38-3.26l-68,6.73a1.84,1.84,0,0,0-.75,3.43L269.35,294a.48.48,0,0,1,.25.46.5.5,0,0,1-.3.43Zm49.05,9.61h0Z" style="fill:#263238"></path></g></svg>